<svg width="20" height="12" viewBox="0 0 20 12" fill="none" xmlns="http://www.w3.org/2000/svg">
<path d="M9.99994 4.005C11.0608 4.005 12.0782 4.42643 12.8284 5.17657C13.5785 5.92672 13.9999 6.94413 13.9999 8.005C13.9999 9.06587 13.5785 10.0833 12.8284 10.8334C12.0782 11.5836 11.0608 12.005 9.99994 12.005C8.93908 12.005 7.92166 11.5836 7.17151 10.8334C6.42137 10.0833 5.99994 9.06587 5.99994 8.005C5.99994 6.94413 6.42137 5.92672 7.17151 5.17657C7.92166 4.42643 8.93908 4.005 9.99994 4.005ZM9.99994 5.505C9.3369 5.505 8.70102 5.76839 8.23218 6.23723C7.76333 6.70607 7.49994 7.34196 7.49994 8.005C7.49994 8.66804 7.76333 9.30393 8.23218 9.77277C8.70102 10.2416 9.3369 10.505 9.99994 10.505C10.663 10.505 11.2989 10.2416 11.7677 9.77277C12.2365 9.30393 12.4999 8.66804 12.4999 8.005C12.4999 7.34196 12.2365 6.70607 11.7677 6.23723C11.2989 5.76839 10.663 5.505 9.99994 5.505ZM9.99994 0.5C14.6129 0.5 18.5959 3.65 19.7009 8.064C19.7493 8.25695 19.7191 8.46122 19.6169 8.63187C19.5147 8.80253 19.3489 8.9256 19.1559 8.974C18.963 9.0224 18.7587 8.99217 18.5881 8.88997C18.4174 8.78776 18.2943 8.62194 18.2459 8.429C17.7829 6.59247 16.7201 4.96306 15.226 3.79913C13.7318 2.6352 11.8919 2.00338 9.99788 2.00384C8.10389 2.0043 6.26426 2.63701 4.77067 3.80167C3.27709 4.96632 2.21505 6.59625 1.75294 8.433C1.72911 8.5286 1.68668 8.61857 1.62807 8.69778C1.56946 8.77698 1.49583 8.84387 1.41138 8.89461C1.32692 8.94536 1.2333 8.97898 1.13585 8.99354C1.03841 9.00811 0.939045 9.00333 0.843442 8.9795C0.74784 8.95566 0.657868 8.91323 0.578665 8.85463C0.499461 8.79602 0.432576 8.72239 0.381829 8.63793C0.331082 8.55348 0.297466 8.45986 0.282901 8.36241C0.268336 8.26496 0.273107 8.1656 0.296942 8.07C0.839257 5.90729 2.08859 3.98777 3.84654 2.61627C5.6045 1.24476 7.77028 0.499912 9.99994 0.5Z" fill="#021E42"/>
</svg>
