<svg width="64" height="64" viewBox="0 0 64 64" fill="none" xmlns="http://www.w3.org/2000/svg">
<circle cx="32" cy="32" r="32" fill="black"/>
<path d="M12.8351 37V26.8182H14.9878V35.2251H19.3529V37H12.8351ZM29.7385 31.9091C29.7385 33.0194 29.5281 33.964 29.1072 34.7429C28.6895 35.5218 28.1195 36.1167 27.3969 36.5277C26.6777 36.9354 25.869 37.1392 24.9708 37.1392C24.066 37.1392 23.2539 36.9337 22.5347 36.5227C21.8155 36.1117 21.2471 35.5168 20.8295 34.7379C20.4118 33.959 20.203 33.0161 20.203 31.9091C20.203 30.7988 20.4118 29.8542 20.8295 29.0753C21.2471 28.2964 21.8155 27.7031 22.5347 27.2955C23.2539 26.8845 24.066 26.679 24.9708 26.679C25.869 26.679 26.6777 26.8845 27.3969 27.2955C28.1195 27.7031 28.6895 28.2964 29.1072 29.0753C29.5281 29.8542 29.7385 30.7988 29.7385 31.9091ZM27.556 31.9091C27.556 31.1899 27.4483 30.5833 27.2329 30.0895C27.0207 29.5956 26.7208 29.2211 26.333 28.9659C25.9452 28.7107 25.4912 28.5831 24.9708 28.5831C24.4504 28.5831 23.9964 28.7107 23.6086 28.9659C23.2208 29.2211 22.9192 29.5956 22.7037 30.0895C22.4916 30.5833 22.3856 31.1899 22.3856 31.9091C22.3856 32.6283 22.4916 33.2348 22.7037 33.7287C22.9192 34.2225 23.2208 34.5971 23.6086 34.8523C23.9964 35.1075 24.4504 35.2351 24.9708 35.2351C25.4912 35.2351 25.9452 35.1075 26.333 34.8523C26.7208 34.5971 27.0207 34.2225 27.2329 33.7287C27.4483 33.2348 27.556 32.6283 27.556 31.9091ZM38.0846 30.1094C38.015 29.8674 37.9172 29.6536 37.7913 29.468C37.6653 29.2791 37.5112 29.12 37.3289 28.9908C37.1499 28.8582 36.9445 28.7571 36.7124 28.6875C36.4838 28.6179 36.2302 28.5831 35.9518 28.5831C35.4314 28.5831 34.974 28.7124 34.5796 28.9709C34.1885 29.2294 33.8836 29.6056 33.6649 30.0994C33.4461 30.59 33.3367 31.1899 33.3367 31.8991C33.3367 32.6084 33.4445 33.2116 33.6599 33.7088C33.8753 34.206 34.1802 34.5855 34.5747 34.8473C34.9691 35.1058 35.4347 35.2351 35.9717 35.2351C36.4589 35.2351 36.8749 35.1489 37.2195 34.9766C37.5676 34.8009 37.8327 34.554 38.015 34.2358C38.2006 33.9176 38.2934 33.5414 38.2934 33.1072L38.7309 33.1719H36.1059V31.5511H40.3666V32.8338C40.3666 33.7287 40.1776 34.4976 39.7998 35.1406C39.422 35.7803 38.9016 36.2741 38.2387 36.6222C37.5758 36.9669 36.8169 37.1392 35.9617 37.1392C35.0072 37.1392 34.1686 36.9287 33.4461 36.5078C32.7236 36.0836 32.1601 35.482 31.7558 34.7031C31.3547 33.9209 31.1542 32.9929 31.1542 31.919C31.1542 31.0937 31.2735 30.358 31.5122 29.7116C31.7541 29.062 32.0922 28.5118 32.5264 28.0611C32.9606 27.6103 33.466 27.2673 34.0427 27.032C34.6194 26.7966 35.2442 26.679 35.917 26.679C36.4937 26.679 37.0306 26.7635 37.5278 26.9325C38.0249 27.0982 38.4658 27.3336 38.8502 27.6385C39.238 27.9434 39.5545 28.3063 39.7998 28.7273C40.0451 29.1449 40.2025 29.6056 40.2721 30.1094H38.0846ZM51.3401 31.9091C51.3401 33.0194 51.1296 33.964 50.7087 34.7429C50.2911 35.5218 49.721 36.1167 48.9985 36.5277C48.2793 36.9354 47.4706 37.1392 46.5724 37.1392C45.6675 37.1392 44.8555 36.9337 44.1363 36.5227C43.4171 36.1117 42.8486 35.5168 42.431 34.7379C42.0134 33.959 41.8046 33.0161 41.8046 31.9091C41.8046 30.7988 42.0134 29.8542 42.431 29.0753C42.8486 28.2964 43.4171 27.7031 44.1363 27.2955C44.8555 26.8845 45.6675 26.679 46.5724 26.679C47.4706 26.679 48.2793 26.8845 48.9985 27.2955C49.721 27.7031 50.2911 28.2964 50.7087 29.0753C51.1296 29.8542 51.3401 30.7988 51.3401 31.9091ZM49.1576 31.9091C49.1576 31.1899 49.0499 30.5833 48.8344 30.0895C48.6223 29.5956 48.3224 29.2211 47.9346 28.9659C47.5468 28.7107 47.0927 28.5831 46.5724 28.5831C46.052 28.5831 45.5979 28.7107 45.2101 28.9659C44.8224 29.2211 44.5207 29.5956 44.3053 30.0895C44.0932 30.5833 43.9871 31.1899 43.9871 31.9091C43.9871 32.6283 44.0932 33.2348 44.3053 33.7287C44.5207 34.2225 44.8224 34.5971 45.2101 34.8523C45.5979 35.1075 46.052 35.2351 46.5724 35.2351C47.0927 35.2351 47.5468 35.1075 47.9346 34.8523C48.3224 34.5971 48.6223 34.2225 48.8344 33.7287C49.0499 33.2348 49.1576 32.6283 49.1576 31.9091Z" fill="white"/>
</svg>
